<svg width="234" height="179" viewBox="0 0 234 179" fill="none" xmlns="http://www.w3.org/2000/svg">
<path d="M58.3471 29.6765C58.3471 46.0664 45.2856 59.3531 29.1735 59.3531C13.0614 59.3531 0 46.0664 0 29.6765C0 13.2866 13.0614 0 29.1735 0C45.2856 0 58.3471 13.2866 58.3471 29.6765ZM2.46644 29.6765C2.46644 44.6808 14.4236 56.8441 29.1735 56.8441C43.9235 56.8441 55.8806 44.6808 55.8806 29.6765C55.8806 14.6723 43.9235 2.50896 29.1735 2.50896C14.4236 2.50896 2.46644 14.6723 2.46644 29.6765Z" fill="#D9D9D9"/>
<path d="M58.3471 89.0291C58.3471 105.419 45.2856 118.706 29.1735 118.706C13.0614 118.706 0 105.419 0 89.0291C0 72.6392 13.0614 59.3525 29.1735 59.3525C45.2856 59.3525 58.3471 72.6392 58.3471 89.0291ZM2.46644 89.0291C2.46644 104.033 14.4236 116.197 29.1735 116.197C43.9235 116.197 55.8806 104.033 55.8806 89.0291C55.8806 74.0248 43.9235 61.8615 29.1735 61.8615C14.4236 61.8615 2.46644 74.0248 2.46644 89.0291Z" fill="#D9D9D9"/>
<path d="M58.3471 148.382C58.3471 164.772 45.2856 178.059 29.1735 178.059C13.0614 178.059 0 164.772 0 148.382C0 131.992 13.0614 118.706 29.1735 118.706C45.2856 118.706 58.3471 131.992 58.3471 148.382ZM2.46644 148.382C2.46644 163.386 14.4236 175.55 29.1735 175.55C43.9235 175.55 55.8806 163.386 55.8806 148.382C55.8806 133.378 43.9235 121.215 29.1735 121.215C14.4236 121.215 2.46644 133.378 2.46644 148.382Z" fill="#D9D9D9"/>
<path d="M116.694 29.6765C116.694 46.0664 103.632 59.3531 87.5202 59.3531C71.4081 59.3531 58.3467 46.0664 58.3467 29.6765C58.3467 13.2866 71.4081 0 87.5202 0C103.632 0 116.694 13.2866 116.694 29.6765ZM60.8131 29.6765C60.8131 44.6808 72.7703 56.8441 87.5202 56.8441C102.27 56.8441 114.227 44.6808 114.227 29.6765C114.227 14.6723 102.27 2.50896 87.5202 2.50896C72.7703 2.50896 60.8131 14.6723 60.8131 29.6765Z" fill="#D9D9D9"/>
<path d="M116.694 89.0291C116.694 105.419 103.632 118.706 87.5202 118.706C71.4081 118.706 58.3467 105.419 58.3467 89.0291C58.3467 72.6392 71.4081 59.3525 87.5202 59.3525C103.632 59.3525 116.694 72.6392 116.694 89.0291ZM60.8131 89.0291C60.8131 104.033 72.7703 116.197 87.5202 116.197C102.27 116.197 114.227 104.033 114.227 89.0291C114.227 74.0248 102.27 61.8615 87.5202 61.8615C72.7703 61.8615 60.8131 74.0248 60.8131 89.0291Z" fill="#D9D9D9"/>
<path d="M116.694 148.382C116.694 164.772 103.632 178.059 87.5202 178.059C71.4081 178.059 58.3467 164.772 58.3467 148.382C58.3467 131.992 71.4081 118.706 87.5202 118.706C103.632 118.706 116.694 131.992 116.694 148.382ZM60.8131 148.382C60.8131 163.386 72.7703 175.55 87.5202 175.55C102.27 175.55 114.227 163.386 114.227 148.382C114.227 133.378 102.27 121.215 87.5202 121.215C72.7703 121.215 60.8131 133.378 60.8131 148.382Z" fill="#D9D9D9"/>
<path d="M175.04 29.6765C175.04 46.0664 161.979 59.3531 145.867 59.3531C129.755 59.3531 116.693 46.0664 116.693 29.6765C116.693 13.2866 129.755 0 145.867 0C161.979 0 175.04 13.2866 175.04 29.6765ZM119.16 29.6765C119.16 44.6808 131.117 56.8441 145.867 56.8441C160.617 56.8441 172.574 44.6808 172.574 29.6765C172.574 14.6723 160.617 2.50896 145.867 2.50896C131.117 2.50896 119.16 14.6723 119.16 29.6765Z" fill="#D9D9D9"/>
<ellipse cx="145.867" cy="89.0291" rx="29.1735" ry="29.6765" fill="#D4ECF8"/>
<ellipse cx="145.867" cy="148.382" rx="29.1735" ry="29.6765" fill="#D4ECF8"/>
<path d="M233.387 29.6765C233.387 46.0664 220.326 59.3531 204.214 59.3531C188.101 59.3531 175.04 46.0664 175.04 29.6765C175.04 13.2866 188.101 0 204.214 0C220.326 0 233.387 13.2866 233.387 29.6765ZM177.506 29.6765C177.506 44.6808 189.464 56.8441 204.214 56.8441C218.963 56.8441 230.921 44.6808 230.921 29.6765C230.921 14.6723 218.963 2.50896 204.214 2.50896C189.464 2.50896 177.506 14.6723 177.506 29.6765Z" fill="#D9D9D9"/>
<path d="M233.387 89.0291C233.387 105.419 220.326 118.706 204.214 118.706C188.101 118.706 175.04 105.419 175.04 89.0291C175.04 72.6392 188.101 59.3525 204.214 59.3525C220.326 59.3525 233.387 72.6392 233.387 89.0291ZM177.506 89.0291C177.506 104.033 189.464 116.197 204.214 116.197C218.963 116.197 230.921 104.033 230.921 89.0291C230.921 74.0248 218.963 61.8615 204.214 61.8615C189.464 61.8615 177.506 74.0248 177.506 89.0291Z" fill="#D9D9D9"/>
<path d="M233.387 148.382C233.387 164.772 220.326 178.059 204.214 178.059C188.101 178.059 175.04 164.772 175.04 148.382C175.04 131.992 188.101 118.706 204.214 118.706C220.326 118.706 233.387 131.992 233.387 148.382ZM177.506 148.382C177.506 163.386 189.464 175.55 204.214 175.55C218.963 175.55 230.921 163.386 230.921 148.382C230.921 133.378 218.963 121.215 204.214 121.215C189.464 121.215 177.506 133.378 177.506 148.382Z" fill="#D9D9D9"/>
</svg>
