<svg width="348" height="347" viewBox="0 0 348 347" fill="none" xmlns="http://www.w3.org/2000/svg">
<path d="M335.959 332.369H21.5195V342.418H335.959V332.369Z" fill="black"/>
<path d="M336.031 86.1081L335.958 86.0351V63.0801L336.031 63.0071L335.958 62.9341V62.4651H335.489L334.947 61.9231L323.397 73.4731L311.847 61.9231L311.305 62.4651H310.539V279.158V280.119V332.368H335.958V280.119V279.65L336.031 279.577L335.958 279.504V279.157V256.548L336.031 256.475L335.958 256.403V255.465L336.031 255.392L335.958 255.319V232.363L336.031 232.291L335.958 232.218V231.28L336.031 231.207L335.958 231.134V208.179L336.031 208.106L335.958 208.033V207.095L336.031 207.022L335.958 206.95V183.994L336.031 183.921L335.958 183.848V182.91L336.031 182.838L335.958 182.765V159.81L336.031 159.737L335.958 159.665V158.727L336.031 158.654L335.958 158.582V135.627L336.031 135.555L335.958 135.482V134.544L336.031 134.471L335.958 134.399V111.443L336.031 111.37L335.958 111.297V110.359L336.031 110.286L335.958 110.213V87.2571L336.031 87.1851L335.958 87.1121V86.1741L336.031 86.1081ZM334.426 64.6121V84.5031L324.48 74.5571L334.426 64.6121ZM334.406 135.017L323.397 146.026L312.388 135.017L323.397 124.008L334.406 135.017ZM312.389 110.834L323.398 99.8251L334.407 110.834L323.398 121.843L312.389 110.834ZM334.406 159.201L323.397 170.21L312.388 159.201L323.397 148.193L334.406 159.201ZM334.406 183.384L323.397 194.393L312.388 183.384L323.397 172.375L334.406 183.384ZM334.406 207.568L323.397 218.577L312.388 207.568L323.397 196.559L334.406 207.568ZM334.406 231.752L323.397 242.761L312.388 231.752L323.397 220.743L334.406 231.752ZM334.406 255.936L323.397 266.945L312.388 255.936L323.397 244.927L334.406 255.936ZM334.426 258.082V277.974L324.48 268.028L334.426 258.082ZM324.481 243.844L334.427 233.898V253.79L324.481 243.844ZM324.481 219.66L334.427 209.714V229.606L324.481 219.66ZM324.481 195.476L334.427 185.53V205.422L324.481 195.476ZM324.481 171.293L334.427 161.347V181.238L324.481 171.293ZM324.481 147.109L334.427 137.163V157.054L324.481 147.109ZM324.481 122.926L334.427 112.98V132.871L324.481 122.926ZM324.481 98.7421L334.427 88.7961V108.688L324.481 98.7421ZM334.406 86.6501L323.397 97.6591L312.388 86.6501L323.397 75.6421L334.406 86.6501ZM312.072 64.3151L322.315 74.5581L312.072 84.8011V64.3151ZM312.072 88.4991L322.315 98.7421L312.072 108.985V88.4991ZM312.072 112.683L322.315 122.926L312.072 133.169V112.683ZM312.072 136.867L322.315 147.109L312.072 157.352V136.867ZM312.072 161.05L322.315 171.292L312.072 181.535V161.05ZM312.072 185.234L322.315 195.477L312.072 205.72V185.234ZM312.072 209.417L322.315 219.66L312.072 229.903V209.417ZM312.072 233.601L322.315 243.844L312.072 254.087V233.601ZM312.072 257.785L322.315 268.028L312.072 278.271V257.785ZM313.35 279.159L323.398 269.111L333.446 279.159H313.35Z" fill="black"/>
<path d="M47.0115 86.1081L46.9385 86.0351V63.0801L47.0115 63.0071L46.9385 62.9341V62.4651H46.4695L45.9275 61.9231L34.3775 73.4731L22.8275 61.9231L22.2855 62.4651H21.5195V279.158V280.119V332.368H46.9385V280.119V279.65L47.0115 279.577L46.9385 279.504V279.157V256.548L47.0115 256.475L46.9385 256.403V255.465L47.0115 255.392L46.9385 255.319V232.363L47.0115 232.291L46.9385 232.218V231.28L47.0115 231.207L46.9385 231.134V208.179L47.0115 208.106L46.9385 208.033V207.095L47.0115 207.022L46.9385 206.95V183.994L47.0115 183.921L46.9385 183.848V182.91L47.0115 182.838L46.9385 182.765V159.81L47.0115 159.737L46.9385 159.665V158.727L47.0115 158.654L46.9385 158.582V135.627L47.0115 135.555L46.9385 135.482V134.544L47.0115 134.471L46.9385 134.399V111.443L47.0115 111.37L46.9385 111.297V110.359L47.0115 110.286L46.9385 110.213V87.2571L47.0115 87.1851L46.9385 87.1121V86.1741L47.0115 86.1081ZM45.4075 64.6121V84.5031L35.4615 74.5571L45.4075 64.6121ZM45.3865 135.017L34.3775 146.026L23.3685 135.017L34.3775 124.008L45.3865 135.017ZM23.3695 110.834L34.3785 99.8251L45.3875 110.834L34.3785 121.843L23.3695 110.834ZM45.3865 159.201L34.3775 170.21L23.3695 159.201L34.3785 148.193L45.3865 159.201ZM45.3865 183.384L34.3775 194.393L23.3685 183.384L34.3775 172.375L45.3865 183.384ZM45.3865 207.568L34.3775 218.577L23.3685 207.568L34.3775 196.559L45.3865 207.568ZM45.3865 231.752L34.3785 242.761L23.3695 231.752L34.3785 220.743L45.3865 231.752ZM45.3865 255.936L34.3775 266.945L23.3685 255.936L34.3775 244.927L45.3865 255.936ZM45.4075 258.082V277.974L35.4615 268.028L45.4075 258.082ZM35.4615 243.844L45.4075 233.898V253.79L35.4615 243.844ZM35.4615 219.66L45.4075 209.714V229.606L35.4615 219.66ZM35.4615 195.476L45.4075 185.53V205.422L35.4615 195.476ZM35.4615 171.293L45.4075 161.347V181.238L35.4615 171.293ZM35.4615 147.109L45.4075 137.163V157.054L35.4615 147.109ZM35.4615 122.926L45.4075 112.98V132.871L35.4615 122.926ZM35.4615 98.7421L45.4075 88.7961V108.688L35.4615 98.7421ZM45.3865 86.6501L34.3775 97.6591L23.3685 86.6501L34.3775 75.6421L45.3865 86.6501ZM23.0525 64.3151L33.2955 74.5581L23.0525 84.8011V64.3151ZM23.0525 88.4991L33.2955 98.7421L23.0525 108.985V88.4991ZM23.0525 112.683L33.2955 122.926L23.0525 133.169V112.683ZM23.0525 136.867L33.2955 147.109L23.0525 157.352V136.867ZM23.0525 161.05L33.2955 171.292L23.0525 181.535V161.05ZM23.0525 185.234L33.2955 195.477L23.0525 205.72V185.234ZM23.0525 209.417L33.2955 219.66L23.0525 229.903V209.417ZM23.0525 233.601L33.2955 243.844L23.0525 254.087V233.601ZM23.0525 257.785L33.2955 268.028L23.0525 278.271V257.785ZM24.3305 279.159L34.3785 269.111L44.4265 279.159H24.3305Z" fill="black"/>
<path d="M297.527 71.2481H22.7695C20.1455 71.2481 18.0195 69.1211 18.0195 66.4981V27.2881C18.0195 24.6651 20.1465 22.5381 22.7695 22.5381H297.528C300.151 22.5381 302.278 24.6651 302.278 27.2881V66.4981C302.278 69.1211 300.151 71.2481 297.527 71.2481Z" fill="black"/>
<path d="M15.4414 20.5061C15.4564 26.1561 16.0364 31.9181 17.0594 37.7671C17.1424 38.2421 17.3424 38.6761 17.6294 38.9961C20.6274 42.3401 23.7934 44.9671 27.1774 46.6661C27.5414 46.8491 27.9474 46.8721 28.3204 46.7231C31.0994 45.6091 33.7834 43.4981 36.3944 40.6071C36.7004 40.2681 36.9064 39.8001 36.9774 39.2901C37.8374 33.1811 38.2504 26.9111 38.2934 20.5061H15.4414Z" fill="black"/>
<path d="M36.7331 23.338C36.8611 22.622 36.5901 34.466 35.8541 38.25C35.4931 40.106 30.9451 43.549 28.7461 44.018" stroke="black" stroke-width="0.25" stroke-miterlimit="10" stroke-linecap="round" stroke-linejoin="round"/>
<path d="M38.293 20.5061C38.308 26.1561 38.888 31.9181 39.911 37.7671C39.994 38.2421 40.194 38.6761 40.481 38.9961C43.479 42.3401 46.645 44.9671 50.029 46.6661C50.393 46.8491 50.799 46.8721 51.172 46.7231C53.951 45.6091 56.635 43.4981 59.246 40.6071C59.552 40.2681 59.758 39.8001 59.829 39.2901C60.689 33.1811 61.102 26.9111 61.145 20.5061H38.293Z" fill="black"/>
<path d="M59.5847 23.338C59.7137 22.622 59.4417 34.466 58.7057 38.25C58.3447 40.106 53.7967 43.549 51.5977 44.018" stroke="black" stroke-width="0.25" stroke-miterlimit="10" stroke-linecap="round" stroke-linejoin="round"/>
<path d="M61.1445 20.5061C61.1595 26.1561 61.7395 31.9181 62.7625 37.7671C62.8455 38.2421 63.0455 38.6761 63.3325 38.9961C66.3305 42.3401 69.4965 44.9671 72.8805 46.6661C73.2445 46.8491 73.6505 46.8721 74.0235 46.7231C76.8025 45.6091 79.4865 43.4981 82.0975 40.6071C82.4035 40.2681 82.6095 39.8001 82.6805 39.2901C83.5405 33.1811 83.9535 26.9111 83.9965 20.5061H61.1445Z" fill="black"/>
<path d="M82.4362 23.338C82.5642 22.622 82.2932 34.466 81.5572 38.25C81.1962 40.106 76.6482 43.549 74.4492 44.018" stroke="black" stroke-width="0.25" stroke-miterlimit="10" stroke-linecap="round" stroke-linejoin="round"/>
<path d="M83.9961 20.5061C84.0111 26.1561 84.5911 31.9181 85.6141 37.7671C85.6971 38.2421 85.8971 38.6761 86.1841 38.9961C89.1821 42.3401 92.3481 44.9671 95.7311 46.6661C96.0951 46.8491 96.5011 46.8721 96.8741 46.7231C99.6531 45.6091 102.337 43.4981 104.948 40.6071C105.254 40.2681 105.46 39.8001 105.531 39.2901C106.391 33.1811 106.804 26.9111 106.847 20.5061H83.9961Z" fill="black"/>
<path d="M105.288 23.338C105.417 22.622 105.145 34.466 104.409 38.25C104.048 40.106 99.4998 43.549 97.3008 44.018" stroke="black" stroke-width="0.25" stroke-miterlimit="10" stroke-linecap="round" stroke-linejoin="round"/>
<path d="M106.848 20.5061C106.863 26.1561 107.443 31.9181 108.466 37.7671C108.549 38.2421 108.749 38.6761 109.036 38.9961C112.034 42.3401 115.2 44.9671 118.584 46.6661C118.949 46.8491 119.354 46.8721 119.727 46.7231C122.506 45.6091 125.19 43.4981 127.801 40.6071C128.107 40.2681 128.313 39.8001 128.384 39.2901C129.244 33.1811 129.657 26.9111 129.7 20.5061H106.848Z" fill="black"/>
<path d="M128.139 23.338C128.268 22.622 127.996 34.466 127.26 38.25C126.899 40.106 122.35 43.549 120.152 44.018" stroke="black" stroke-width="0.25" stroke-miterlimit="10" stroke-linecap="round" stroke-linejoin="round"/>
<path d="M129.699 20.5061C129.714 26.1561 130.294 31.9181 131.317 37.7671C131.4 38.2421 131.6 38.6761 131.887 38.9961C134.885 42.3401 138.051 44.9671 141.434 46.6661C141.798 46.8491 142.204 46.8721 142.577 46.7231C145.356 45.6091 148.04 43.4981 150.651 40.6071C150.957 40.2681 151.163 39.8001 151.234 39.2901C152.093 33.1811 152.507 26.9111 152.55 20.5061H129.699Z" fill="black"/>
<path d="M150.991 23.338C151.12 22.622 150.848 34.466 150.112 38.25C149.751 40.106 145.202 43.549 143.004 44.018" stroke="black" stroke-width="0.25" stroke-miterlimit="10" stroke-linecap="round" stroke-linejoin="round"/>
<path d="M152.551 20.5061C152.566 26.1561 153.146 31.9181 154.169 37.7671C154.252 38.2421 154.452 38.6761 154.739 38.9961C157.737 42.3401 160.903 44.9671 164.287 46.6661C164.652 46.8491 165.057 46.8721 165.43 46.7231C168.209 45.6091 170.893 43.4981 173.504 40.6071C173.81 40.2681 174.016 39.8001 174.087 39.2901C174.947 33.1811 175.36 26.9111 175.403 20.5061H152.551Z" fill="black"/>
<path d="M173.842 23.338C173.97 22.622 173.699 34.466 172.963 38.25C172.602 40.106 168.053 43.549 165.855 44.018" stroke="black" stroke-width="0.25" stroke-miterlimit="10" stroke-linecap="round" stroke-linejoin="round"/>
<path d="M175.402 20.5061C175.417 26.1561 175.997 31.9181 177.02 37.7671C177.103 38.2421 177.303 38.6761 177.59 38.9961C180.588 42.3401 183.754 44.9671 187.138 46.6661C187.502 46.8491 187.908 46.8721 188.281 46.7231C191.06 45.6091 193.744 43.4981 196.355 40.6071C196.661 40.2681 196.867 39.8001 196.938 39.2901C197.798 33.1811 198.211 26.9111 198.254 20.5061H175.402Z" fill="black"/>
<path d="M196.694 23.338C196.823 22.622 196.551 34.466 195.815 38.25C195.454 40.106 190.905 43.549 188.707 44.018" stroke="black" stroke-width="0.25" stroke-miterlimit="10" stroke-linecap="round" stroke-linejoin="round"/>
<path d="M198.254 20.5061C198.269 26.1561 198.849 31.9181 199.872 37.7671C199.955 38.2421 200.155 38.6761 200.442 38.9961C203.44 42.3401 206.606 44.9671 209.99 46.6661C210.354 46.8491 210.76 46.8721 211.133 46.7231C213.912 45.6091 216.596 43.4981 219.207 40.6071C219.513 40.2681 219.719 39.8001 219.79 39.2901C220.65 33.1811 221.063 26.9111 221.106 20.5061H198.254Z" fill="black"/>
<path d="M219.546 23.338C219.674 22.622 219.403 34.466 218.667 38.25C218.306 40.106 213.758 43.549 211.559 44.018" stroke="black" stroke-width="0.25" stroke-miterlimit="10" stroke-linecap="round" stroke-linejoin="round"/>
<path d="M221.105 20.5061C221.12 26.1561 221.7 31.9181 222.723 37.7671C222.806 38.2421 223.007 38.6761 223.293 38.9961C226.291 42.3401 229.457 44.9671 232.84 46.6661C233.204 46.8491 233.61 46.8721 233.983 46.7231C236.762 45.6091 239.446 43.4981 242.057 40.6071C242.363 40.2681 242.569 39.8001 242.64 39.2901C243.5 33.1811 243.913 26.9111 243.956 20.5061H221.105Z" fill="black"/>
<path d="M242.397 23.338C242.526 22.622 242.254 34.466 241.518 38.25C241.157 40.106 236.609 43.549 234.41 44.018" stroke="black" stroke-width="0.25" stroke-miterlimit="10" stroke-linecap="round" stroke-linejoin="round"/>
<path d="M243.957 20.5061C243.972 26.1561 244.552 31.9181 245.575 37.7671C245.658 38.2421 245.858 38.6761 246.145 38.9961C249.143 42.3401 252.309 44.9671 255.692 46.6661C256.057 46.8491 256.462 46.8721 256.835 46.7231C259.614 45.6091 262.298 43.4981 264.909 40.6071C265.215 40.2681 265.421 39.8001 265.492 39.2901C266.352 33.1811 266.765 26.9111 266.808 20.5061H243.957Z" fill="black"/>
<path d="M265.249 23.338C265.377 22.622 265.106 34.466 264.37 38.25C264.009 40.106 259.461 43.549 257.262 44.018" stroke="black" stroke-width="0.25" stroke-miterlimit="10" stroke-linecap="round" stroke-linejoin="round"/>
<path d="M347.517 42.095C347.517 66.65 327.705 84.801 302.28 84.801C276.855 84.801 255.445 66.65 255.445 42.095C255.445 17.54 276.855 0 302.28 0C327.704 0 347.517 17.54 347.517 42.095Z" fill="black"/>
<path d="M257.468 345.124C176.54 346.586 95.6127 346.579 14.6847 345.104C11.6677 345.048 8.97672 342.849 8.68972 340.192C4.40472 300.241 2.92472 260.338 4.52972 220.485C4.64572 217.632 7.30172 215.266 10.4367 215.205C94.5697 213.618 178.704 213.618 262.837 215.206C265.973 215.266 268.608 217.632 268.7 220.485C269.959 260.331 268.109 300.241 263.501 340.21C263.194 342.869 260.485 345.069 257.468 345.124Z" fill="black"/>
<path d="M268.696 220.486C269.002 230.157 269.12 239.832 269.064 249.51H3.90234C3.93234 239.833 4.13634 230.158 4.52634 220.486C4.64234 217.633 7.29834 215.267 10.4333 215.206C94.5663 213.619 178.7 213.619 262.833 215.207C265.969 215.267 268.605 217.633 268.696 220.486ZM6.39934 315.439C7.04234 323.688 7.80134 331.939 8.68634 340.192C8.97234 342.85 11.6643 345.048 14.6813 345.104C95.6093 346.579 176.536 346.586 257.464 345.124C260.481 345.069 263.189 342.869 263.497 340.211C264.449 331.951 265.277 323.694 265.99 315.439H6.39934Z" fill="black"/>
<path d="M271.768 220.828H2.09386C1.47886 220.828 0.959856 220.418 0.886856 219.872L0.0088573 213.331C-0.0781427 212.685 0.486858 212.117 1.21586 212.117H273.194C273.959 212.117 274.534 212.739 274.388 213.409L272.962 219.95C272.851 220.46 272.35 220.828 271.768 220.828Z" fill="black"/>
<path d="M268.595 220.828H4.83203" stroke="black" stroke-width="0.25" stroke-miterlimit="10" stroke-linecap="round" stroke-linejoin="round"/>
<path d="M292.205 198.016H217.922C217.711 198.016 217.539 197.845 217.539 197.634V193.769C217.539 193.558 217.71 193.387 217.922 193.387H292.205C292.416 193.387 292.587 193.558 292.587 193.769V197.634C292.587 197.845 292.416 198.016 292.205 198.016Z" fill="black"/>
<path d="M235.886 193.386H222.204C221.58 193.386 221.049 192.919 220.973 192.3C220.126 185.424 219.788 178.686 220.03 172.104C220.054 171.462 220.573 170.943 221.214 170.913C226.587 170.658 231.872 170.65 237.053 170.93C237.719 170.966 238.237 171.532 238.224 172.199C238.086 179.008 237.727 185.702 237.12 192.265C237.062 192.901 236.525 193.386 235.886 193.386Z" fill="black"/>
<path d="M234.286 180.446C234.286 179.96 233.083 179.567 231.598 179.567C231.394 179.567 231.196 179.575 231.005 179.589C231.15 179.464 231.296 179.33 231.44 179.185C232.49 178.135 233.062 177.006 232.719 176.663C232.376 176.32 231.246 176.892 230.197 177.942C230.053 178.086 229.918 178.232 229.793 178.377C229.807 178.186 229.815 177.988 229.815 177.784C229.815 176.3 229.421 175.096 228.936 175.096C228.45 175.096 228.057 176.299 228.057 177.784C228.057 177.988 228.065 178.186 228.079 178.377C227.954 178.232 227.819 178.086 227.675 177.942C226.625 176.892 225.496 176.32 225.153 176.663C224.81 177.006 225.382 178.136 226.432 179.185C226.576 179.329 226.722 179.464 226.867 179.589C226.676 179.575 226.478 179.567 226.274 179.567C224.79 179.567 223.586 179.961 223.586 180.446C223.586 180.932 224.789 181.325 226.274 181.325C226.478 181.325 226.676 181.317 226.867 181.303C226.722 181.428 226.576 181.562 226.432 181.707C225.382 182.757 224.81 183.886 225.153 184.229C225.496 184.572 226.626 184 227.675 182.95C227.819 182.806 227.954 182.66 228.079 182.515C228.065 182.706 228.057 182.904 228.057 183.108C228.057 184.593 228.451 185.796 228.936 185.796C229.421 185.796 229.815 184.593 229.815 183.108C229.815 182.904 229.807 182.706 229.793 182.515C229.918 182.66 230.052 182.806 230.197 182.95C231.247 184 232.376 184.572 232.719 184.229C233.062 183.886 232.49 182.756 231.44 181.707C231.296 181.563 231.15 181.428 231.005 181.303C231.196 181.317 231.394 181.325 231.598 181.325C233.083 181.325 234.286 180.932 234.286 180.446Z" fill="black"/>
<path d="M232.535 189.976H225.276C225.025 189.976 224.816 189.783 224.797 189.533L224.728 188.641C224.707 188.362 224.927 188.124 225.207 188.124H232.621C232.904 188.124 233.126 188.368 233.099 188.65L233.013 189.542C232.989 189.788 232.782 189.976 232.535 189.976Z" fill="black"/>
<path d="M259.1 193.386H245.418C244.794 193.386 244.263 192.919 244.187 192.3C243.34 185.424 243.002 178.686 243.244 172.104C243.268 171.462 243.787 170.943 244.428 170.913C249.801 170.658 255.086 170.65 260.267 170.93C260.933 170.966 261.451 171.532 261.438 172.199C261.3 179.008 260.941 185.702 260.334 192.265C260.276 192.901 259.739 193.386 259.1 193.386Z" fill="black"/>
<path d="M257.505 180.446C257.505 179.96 256.302 179.567 254.817 179.567C254.613 179.567 254.415 179.575 254.224 179.589C254.369 179.464 254.515 179.33 254.659 179.185C255.709 178.135 256.281 177.006 255.938 176.663C255.595 176.32 254.465 176.892 253.416 177.942C253.272 178.086 253.137 178.232 253.012 178.377C253.026 178.186 253.034 177.988 253.034 177.784C253.034 176.3 252.64 175.096 252.155 175.096C251.669 175.096 251.276 176.299 251.276 177.784C251.276 177.988 251.284 178.186 251.298 178.377C251.173 178.232 251.039 178.086 250.894 177.942C249.844 176.892 248.715 176.32 248.372 176.663C248.029 177.006 248.601 178.136 249.651 179.185C249.795 179.329 249.941 179.464 250.086 179.589C249.895 179.575 249.697 179.567 249.493 179.567C248.009 179.567 246.805 179.961 246.805 180.446C246.805 180.932 248.008 181.325 249.493 181.325C249.697 181.325 249.895 181.317 250.086 181.303C249.941 181.428 249.795 181.562 249.651 181.707C248.601 182.757 248.029 183.886 248.372 184.229C248.715 184.572 249.845 184 250.894 182.95C251.038 182.806 251.173 182.66 251.298 182.515C251.284 182.706 251.276 182.904 251.276 183.108C251.276 184.593 251.67 185.796 252.155 185.796C252.64 185.796 253.034 184.593 253.034 183.108C253.034 182.904 253.026 182.706 253.012 182.515C253.137 182.66 253.271 182.806 253.416 182.95C254.466 184 255.595 184.572 255.938 184.229C256.281 183.886 255.709 182.756 254.659 181.707C254.515 181.563 254.369 181.428 254.224 181.303C254.415 181.317 254.613 181.325 254.817 181.325C256.301 181.325 257.505 180.932 257.505 180.446Z" fill="black"/>
<path d="M255.754 189.976H248.495C248.244 189.976 248.035 189.783 248.016 189.533L247.947 188.641C247.925 188.362 248.146 188.124 248.426 188.124H255.84C256.123 188.124 256.345 188.368 256.318 188.65L256.232 189.542C256.208 189.788 256.001 189.976 255.754 189.976Z" fill="black"/>
<path d="M283.866 193.386H270.184C269.56 193.386 269.03 192.919 268.953 192.3C268.106 185.424 267.767 178.686 268.01 172.104C268.034 171.462 268.553 170.943 269.194 170.913C274.567 170.658 279.852 170.65 285.033 170.93C285.699 170.966 286.217 171.532 286.204 172.199C286.066 179.008 285.707 185.702 285.1 192.265C285.041 192.901 284.504 193.386 283.866 193.386Z" fill="black"/>
<path d="M282.27 180.446C282.27 179.96 281.067 179.567 279.582 179.567C279.378 179.567 279.18 179.575 278.989 179.589C279.134 179.464 279.28 179.33 279.424 179.185C280.474 178.135 281.046 177.006 280.703 176.663C280.36 176.32 279.23 176.892 278.181 177.942C278.037 178.086 277.902 178.232 277.777 178.377C277.791 178.186 277.799 177.988 277.799 177.784C277.799 176.3 277.405 175.096 276.92 175.096C276.434 175.096 276.041 176.299 276.041 177.784C276.041 177.988 276.049 178.186 276.063 178.377C275.938 178.232 275.804 178.086 275.659 177.942C274.609 176.892 273.48 176.32 273.137 176.663C272.794 177.006 273.366 178.136 274.416 179.185C274.56 179.329 274.706 179.464 274.851 179.589C274.66 179.575 274.461 179.567 274.258 179.567C272.774 179.567 271.57 179.961 271.57 180.446C271.57 180.932 272.773 181.325 274.258 181.325C274.462 181.325 274.66 181.317 274.851 181.303C274.706 181.428 274.56 181.562 274.416 181.707C273.366 182.757 272.794 183.886 273.137 184.229C273.48 184.572 274.61 184 275.659 182.95C275.803 182.806 275.938 182.66 276.063 182.515C276.049 182.706 276.041 182.904 276.041 183.108C276.041 184.593 276.435 185.796 276.92 185.796C277.406 185.796 277.799 184.593 277.799 183.108C277.799 182.904 277.791 182.706 277.777 182.515C277.902 182.66 278.036 182.806 278.181 182.95C279.231 184 280.36 184.572 280.703 184.229C281.046 183.886 280.474 182.756 279.424 181.707C279.28 181.563 279.134 181.428 278.989 181.303C279.18 181.317 279.378 181.325 279.582 181.325C281.067 181.325 282.27 180.932 282.27 180.446Z" fill="black"/>
<path d="M280.519 189.976H273.26C273.009 189.976 272.8 189.783 272.781 189.533L272.712 188.641C272.69 188.362 272.911 188.124 273.191 188.124H280.605C280.888 188.124 281.11 188.368 281.083 188.65L280.997 189.542C280.974 189.788 280.767 189.976 280.519 189.976Z" fill="black"/>
<path d="M291.807 152.686H217.524C217.313 152.686 217.141 152.515 217.141 152.304V148.439C217.141 148.228 217.312 148.057 217.524 148.057H291.807C292.018 148.057 292.189 148.228 292.189 148.439V152.304C292.189 152.515 292.018 152.686 291.807 152.686Z" fill="black"/>
<path d="M235.487 148.056H221.805C221.181 148.056 220.65 147.589 220.574 146.97C219.727 140.094 219.389 133.356 219.631 126.774C219.655 126.132 220.174 125.613 220.815 125.583C226.188 125.328 231.473 125.32 236.654 125.6C237.32 125.636 237.838 126.202 237.825 126.869C237.687 133.678 237.328 140.372 236.721 146.935C236.663 147.571 236.126 148.056 235.487 148.056Z" fill="black"/>
<path d="M233.888 135.116C233.888 134.63 232.684 134.237 231.199 134.237C230.995 134.237 230.798 134.245 230.607 134.259C230.752 134.134 230.898 134 231.042 133.855C232.092 132.805 232.663 131.676 232.32 131.333C231.977 130.99 230.847 131.562 229.798 132.612C229.654 132.756 229.52 132.902 229.395 133.047C229.409 132.856 229.417 132.658 229.417 132.454C229.417 130.97 229.023 129.766 228.538 129.766C228.052 129.766 227.659 130.969 227.659 132.454C227.659 132.658 227.667 132.856 227.681 133.047C227.556 132.902 227.42 132.756 227.276 132.612C226.226 131.562 225.097 130.99 224.754 131.333C224.411 131.676 224.984 132.806 226.034 133.855C226.178 133.999 226.324 134.134 226.469 134.259C226.278 134.245 226.079 134.237 225.875 134.237C224.391 134.237 223.188 134.631 223.188 135.116C223.188 135.602 224.39 135.995 225.875 135.995C226.079 135.995 226.278 135.987 226.469 135.973C226.324 136.098 226.178 136.232 226.034 136.377C224.984 137.427 224.411 138.556 224.754 138.899C225.097 139.242 226.227 138.67 227.276 137.62C227.42 137.476 227.556 137.33 227.681 137.185C227.667 137.376 227.659 137.574 227.659 137.778C227.659 139.263 228.053 140.466 228.538 140.466C229.023 140.466 229.417 139.263 229.417 137.778C229.417 137.574 229.409 137.376 229.395 137.185C229.52 137.33 229.653 137.476 229.798 137.62C230.848 138.67 231.977 139.242 232.32 138.899C232.663 138.556 232.092 137.426 231.042 136.377C230.898 136.233 230.752 136.098 230.607 135.973C230.798 135.987 230.995 135.995 231.199 135.995C232.684 135.995 233.888 135.602 233.888 135.116Z" fill="black"/>
<path d="M232.137 144.646H224.878C224.627 144.646 224.418 144.453 224.399 144.203L224.33 143.311C224.309 143.032 224.529 142.794 224.809 142.794H232.223C232.506 142.794 232.728 143.038 232.701 143.32L232.615 144.212C232.591 144.458 232.384 144.646 232.137 144.646Z" fill="black"/>
<path d="M258.702 148.056H245.02C244.396 148.056 243.865 147.589 243.789 146.97C242.942 140.094 242.604 133.356 242.846 126.774C242.87 126.132 243.389 125.613 244.03 125.583C249.403 125.328 254.688 125.32 259.869 125.6C260.535 125.636 261.053 126.202 261.04 126.869C260.902 133.678 260.543 140.372 259.936 146.935C259.878 147.571 259.341 148.056 258.702 148.056Z" fill="black"/>
<path d="M257.106 135.116C257.106 134.63 255.903 134.237 254.418 134.237C254.214 134.237 254.016 134.245 253.825 134.259C253.97 134.134 254.116 134 254.26 133.855C255.31 132.805 255.882 131.676 255.539 131.333C255.196 130.99 254.066 131.562 253.017 132.612C252.873 132.756 252.738 132.902 252.613 133.047C252.627 132.856 252.635 132.658 252.635 132.454C252.635 130.97 252.241 129.766 251.756 129.766C251.27 129.766 250.877 130.969 250.877 132.454C250.877 132.658 250.885 132.856 250.899 133.047C250.774 132.902 250.64 132.756 250.495 132.612C249.445 131.562 248.316 130.99 247.973 131.333C247.63 131.676 248.202 132.806 249.252 133.855C249.396 133.999 249.542 134.134 249.687 134.259C249.496 134.245 249.298 134.237 249.094 134.237C247.61 134.237 246.406 134.631 246.406 135.116C246.406 135.602 247.609 135.995 249.094 135.995C249.298 135.995 249.496 135.987 249.687 135.973C249.542 136.098 249.396 136.232 249.252 136.377C248.202 137.427 247.63 138.556 247.973 138.899C248.316 139.242 249.446 138.67 250.495 137.62C250.639 137.476 250.774 137.33 250.899 137.185C250.885 137.376 250.877 137.574 250.877 137.778C250.877 139.263 251.271 140.466 251.756 140.466C252.241 140.466 252.635 139.263 252.635 137.778C252.635 137.574 252.627 137.376 252.613 137.185C252.738 137.33 252.872 137.476 253.017 137.62C254.067 138.67 255.196 139.242 255.539 138.899C255.882 138.556 255.31 137.426 254.26 136.377C254.116 136.233 253.97 136.098 253.825 135.973C254.016 135.987 254.214 135.995 254.418 135.995C255.902 135.995 257.106 135.602 257.106 135.116Z" fill="black"/>
<path d="M255.355 144.646H248.096C247.845 144.646 247.636 144.453 247.617 144.203L247.548 143.311C247.526 143.032 247.747 142.794 248.027 142.794H255.441C255.724 142.794 255.946 143.038 255.919 143.32L255.833 144.212C255.809 144.458 255.602 144.646 255.355 144.646Z" fill="black"/>
<path d="M283.468 148.056H269.786C269.162 148.056 268.632 147.589 268.555 146.97C267.708 140.094 267.369 133.356 267.612 126.774C267.636 126.132 268.155 125.613 268.796 125.583C274.169 125.328 279.454 125.32 284.635 125.6C285.301 125.636 285.819 126.202 285.806 126.869C285.668 133.678 285.309 140.372 284.702 146.935C284.643 147.571 284.106 148.056 283.468 148.056Z" fill="black"/>
<path d="M281.872 135.116C281.872 134.63 280.669 134.237 279.184 134.237C278.98 134.237 278.782 134.245 278.591 134.259C278.736 134.134 278.882 134 279.026 133.855C280.076 132.805 280.648 131.676 280.305 131.333C279.962 130.99 278.832 131.562 277.783 132.612C277.639 132.756 277.504 132.902 277.379 133.047C277.393 132.856 277.401 132.658 277.401 132.454C277.401 130.97 277.007 129.766 276.522 129.766C276.036 129.766 275.643 130.969 275.643 132.454C275.643 132.658 275.651 132.856 275.665 133.047C275.54 132.902 275.406 132.756 275.261 132.612C274.211 131.562 273.082 130.99 272.739 131.333C272.396 131.676 272.968 132.806 274.018 133.855C274.162 133.999 274.308 134.134 274.453 134.259C274.262 134.245 274.063 134.237 273.86 134.237C272.376 134.237 271.172 134.631 271.172 135.116C271.172 135.602 272.375 135.995 273.86 135.995C274.064 135.995 274.262 135.987 274.453 135.973C274.308 136.098 274.162 136.232 274.018 136.377C272.968 137.427 272.396 138.556 272.739 138.899C273.082 139.242 274.212 138.67 275.261 137.62C275.405 137.476 275.54 137.33 275.665 137.185C275.651 137.376 275.643 137.574 275.643 137.778C275.643 139.263 276.037 140.466 276.522 140.466C277.008 140.466 277.401 139.263 277.401 137.778C277.401 137.574 277.393 137.376 277.379 137.185C277.504 137.33 277.638 137.476 277.783 137.62C278.833 138.67 279.962 139.242 280.305 138.899C280.648 138.556 280.076 137.426 279.026 136.377C278.882 136.233 278.736 136.098 278.591 135.973C278.782 135.987 278.98 135.995 279.184 135.995C280.669 135.995 281.872 135.602 281.872 135.116Z" fill="black"/>
<path d="M280.121 144.646H272.862C272.611 144.646 272.402 144.453 272.383 144.203L272.314 143.311C272.292 143.032 272.513 142.794 272.793 142.794H280.207C280.49 142.794 280.712 143.038 280.685 143.32L280.599 144.212C280.576 144.458 280.369 144.646 280.121 144.646Z" fill="black"/>
</svg>
