<svg width="272" height="329" viewBox="0 0 272 329" fill="none" xmlns="http://www.w3.org/2000/svg">
<path d="M237.979 72.317V73.255L237.906 73.328L237.979 73.4V96.356L237.906 96.428L237.979 96.501V97.439L237.906 97.512L237.979 97.585V120.541L237.906 120.613L237.979 120.686V121.624L237.906 121.697L237.979 121.77V144.725L237.906 144.797L237.979 144.87V145.808L237.906 145.88L237.979 145.953V168.908L237.906 168.981L237.979 169.054V169.992L237.906 170.065L237.979 170.138V193.094L237.906 193.167L237.979 193.24V194.178L237.906 194.251L237.979 194.324V217.28L237.906 217.353L237.979 217.426V218.364L237.906 218.437L237.979 218.51V241.466L237.906 241.539L237.979 241.612V242.55L237.906 242.623L237.979 242.696V265.305V265.652L237.906 265.725L237.979 265.797V266.266V318.515H263.398V266.266V265.305V48.603H262.632L262.09 48.061L250.54 59.611L238.99 48.061L238.448 48.603H237.979V49.072L237.906 49.144L237.979 49.217V72.172L237.906 72.245L237.979 72.317ZM249.457 60.695L239.511 70.641V50.75L249.457 60.695ZM250.54 110.145L261.549 121.154L250.54 132.163L239.531 121.154L250.54 110.145ZM250.54 107.979L239.531 96.97L250.54 85.961L261.549 96.97L250.54 107.979ZM250.54 134.329L261.549 145.338L250.54 156.347L239.531 145.338L250.54 134.329ZM250.54 158.512L261.549 169.521L250.54 180.53L239.531 169.521L250.54 158.512ZM250.54 182.696L261.549 193.705L250.54 204.714L239.531 193.705L250.54 182.696ZM250.54 206.88L261.549 217.889L250.54 228.898L239.531 217.889L250.54 206.88ZM250.54 231.064L261.549 242.073L250.54 253.082L239.531 242.073L250.54 231.064ZM249.457 254.164L239.511 264.11V244.218L249.457 254.164ZM239.511 239.926V220.034L249.457 229.98L239.511 239.926ZM239.511 215.742V195.851L249.457 205.797L239.511 215.742ZM239.511 191.559V171.667L249.457 181.613L239.511 191.559ZM239.511 167.375V147.484L249.457 157.43L239.511 167.375ZM239.511 143.191V123.3L249.457 133.246L239.511 143.191ZM239.511 119.008V99.117L249.457 109.063L239.511 119.008ZM239.511 94.824V74.932L249.457 84.878L239.511 94.824ZM250.54 61.778L261.549 72.786L250.54 83.795L239.531 72.786L250.54 61.778ZM261.866 70.937L251.623 60.694L261.866 50.451V70.937ZM261.866 95.121L251.623 84.878L261.866 74.635V95.121ZM261.866 119.305L251.623 109.062L261.866 98.819V119.305ZM261.866 143.488L251.623 133.245L261.866 123.003V143.488ZM261.866 167.672L251.623 157.429L261.866 147.187V167.672ZM261.866 191.856L251.623 181.613L261.866 171.37V191.856ZM261.866 216.039L251.623 205.796L261.866 195.553V216.039ZM261.866 240.223L251.623 229.98L261.866 219.737V240.223ZM261.866 264.407L251.623 254.164L261.866 243.921V264.407ZM240.492 265.296L250.54 255.248L260.588 265.296H240.492Z" fill="black"/>
<path d="M5.59073 61.7779H258.54C261.483 61.7779 263.869 59.3919 263.869 56.4489V5.85292C263.869 2.90992 261.483 0.523926 258.54 0.523926H5.59073C2.64773 0.523926 0.261719 2.90992 0.261719 5.85292V56.4489C0.262719 59.3919 2.64773 61.7779 5.59073 61.7779Z" fill="black"/>
<path d="M245.73 12.691C238.596 14.47 231.732 17.318 225.282 20.83C208.143 30.16 192.825 43.224 174.262 49.24C147.344 57.964 118.037 50.555 91.2347 41.48C64.4327 32.405 37.1497 21.512 8.91473 23.39C6.04173 23.581 3.13372 23.947 0.261719 24.501V56.45C0.261719 59.393 2.64773 61.779 5.59073 61.779H258.54C261.483 61.779 263.869 59.393 263.869 56.45V11.339C257.925 10.892 251.976 11.134 245.73 12.691Z" fill="black"/>
<path d="M172.454 325.206C127.972 326.905 83.4905 326.905 39.0085 325.206C33.2415 324.986 28.6895 322.045 28.5045 318.446C26.3995 277.546 26.3995 236.647 28.5045 195.747C28.6895 192.148 33.2415 189.207 39.0085 188.987C83.4905 187.288 127.972 187.288 172.454 188.987C178.221 189.207 182.773 192.148 182.958 195.747C185.063 236.646 185.063 277.546 182.958 318.446C182.773 322.044 178.221 324.985 172.454 325.206Z" fill="black"/>
<path d="M172.454 325.206C178.221 324.986 182.773 322.045 182.958 318.446C184.516 288.176 184.914 257.906 184.166 227.637C179.459 225.948 174.521 224.923 169.504 224.729C153.301 224.105 136.615 232.83 129.497 247.399C124.596 257.431 124.392 269.021 121.913 279.908C119.434 290.795 113.297 302.277 102.505 305.138C95.084 307.105 87.18 304.46 80.512 300.655C73.844 296.849 67.861 291.87 60.945 288.536C50.536 283.517 38.344 283.044 27.293 286.339C27.555 297.041 27.954 307.744 28.505 318.446C28.69 322.045 33.242 324.986 39.009 325.206C83.49 326.905 127.972 326.905 172.454 325.206Z" fill="black"/>
<path d="M27.6016 216.946C79.6936 216.262 131.772 216.262 183.865 216.946" stroke="#100B35" stroke-width="0.25" stroke-miterlimit="10" stroke-linecap="round" stroke-linejoin="round"/>
<path d="M184.526 252.847C131.984 252.847 79.4694 252.847 26.9414 252.847" stroke="#100B35" stroke-width="0.25" stroke-miterlimit="10" stroke-linecap="round" stroke-linejoin="round"/>
<path d="M27.3477 288.739C79.6087 289.432 131.856 289.432 184.117 288.739" stroke="#100B35" stroke-width="0.25" stroke-miterlimit="10" stroke-linecap="round" stroke-linejoin="round"/>
<path d="M186.426 195.368H24.7045C24.3355 195.368 24.0245 194.99 23.9805 194.488L23.4545 188.465C23.4025 187.87 23.7415 187.347 24.1785 187.347H187.282C187.741 187.347 188.085 187.92 187.998 188.537L187.142 194.56C187.075 195.03 186.775 195.368 186.426 195.368Z" fill="black"/>
<path d="M184.521 195.368H26.3438" stroke="#100B35" stroke-width="0.25" stroke-miterlimit="10" stroke-linecap="round" stroke-linejoin="round"/>
<path d="M266.165 327.05C248.676 329.137 231.187 329.137 213.698 327.05C211.181 326.75 209.26 324.65 209.217 322.116C208.297 268.093 208.297 214.069 209.217 160.045C209.26 157.511 211.181 155.411 213.698 155.111C231.187 153.024 248.676 153.024 266.165 155.111C268.682 155.411 270.603 157.511 270.646 160.045C271.565 214.069 271.565 268.092 270.646 322.116C270.603 324.65 268.681 326.75 266.165 327.05Z" fill="black"/>
</svg>
